Release Title: Princess Protection Program 2009

Release Date: 26 June 2009 (USA)

Film Length: 1:28:12

Tagline: Royality meets reality.

Genres: Comedy | Drama | Family

Storyline: When a tiny country is invaded by a dictator, a young Princess (later known as Rosie) is taken into custody by the Princess Protection Program. She is whisked away to rural Louisiana where she must learn the ins and outs of behaving like a normal American teenager. In the process of adapting to her new life, Rosie gives her new friend and roommate, Carter, a few lessons in how to act with royal aplomb.

Demi Lovato ... Rosalinda Montoya / Rosie Gonzalez
Selena Gomez ... Carter Mason
Nicholas Braun ... Ed
Molly Hagan ... The Director
Johnny Ray ... General Magnus Kane (as Johnny Ray Rodriguez)
Jamie Chung ... Chelsea
Samantha Droke ... Brooke
Robert Adamson ... Donny
Kevin G. Schmidt ... Bull
Dale Dickey ... Helen
Sully Diaz ... Queen Sophia
Tom Verica ... Joe Mason
Jessenia Da Silva ... Chloe (as Jessenia Da Silva Rios)
Ángel Vázquez ... Dimitri
Brian Tester ... Principal Burkle
Ricardo Alvarez ... Elegante
 
Format : Matroska
File size : 3.12 GiB
Duration : 1h 28mn
Overall bit rate : 5 058 Kbps
Encoded date : UTC 2012-03-17 11:07:37
Writing application : mkvmerge v5.0.0 ('Die Wahre Liebe') built on Sep 25 2011 20:33:49
Writing library : libebml v1.2.2 + libmatroska v1.3.0

Video
ID : 1
Format : AVC
Format/Info : Advanced Video Codec
Format profile : High@L4.1
Format settings, CABAC : Yes
Format settings, ReFrames : 4 frames
Muxing mode : Header stripping
Codec ID : V_MPEG4/ISO/AVC
Duration : 1h 28mn
Bit rate : 4 481 Kbps
Width : 1 280 pixels
Height : 720 pixels
Display aspect ratio : 16:9
Frame rate : 23.976 fps
Color space : YUV
Chroma subsampling : 4:2:0
Bit depth : 8 bits
Scan type : Progressive
Bits/(Pixel*Frame) : 0.203
Stream size : 2.70 GiB (87%)
Writing library : x264 core 75 r1259 dd026f2
Language : English

Audio #1
ID : 2
Format : AC-3
Format/Info : Audio Coding 3
Mode extension : CM (complete main)
Muxing mode : Header stripping
Codec ID : A_AC3
Duration : 1h 28mn
Bit rate mode : Constant
Bit rate : 384 Kbps
Channel(s) : 6 channels
Channel positions : Front: L C R, Side: L R, LFE
Sampling rate : 48.0 KHz
Bit depth : 16 bits
Compression mode : Lossy
Stream size : 242 MiB (8%)
Title : Alan_English 5.1
Language : English

Audio #2
ID : 3
Format : AC-3
Format/Info : Audio Coding 3
Mode extension : CM (complete main)
Muxing mode : Header stripping
Codec ID : A_AC3
Duration : 1h 28mn
Bit rate mode : Constant
Bit rate : 192 Kbps
Channel(s) : 2 channels
Channel positions : Front: L R
Sampling rate : 48.0 KHz
Bit depth : 16 bits
Compression mode : Lossy
Delay relative to video : 10ms
Stream size : 121 MiB (4%)
Title : Alan_Hindi 2.0
Language : Hindi